<?xml version="1.0" encoding="UTF-8"?>
<svg width="288px" height="252px" viewBox="0 0 288 252" version="1.1" xmlns="http://www.w3.org/2000/svg" xmlns:xlink="http://www.w3.org/1999/xlink">
    <title>Untitled 10</title>
    <g id="Page-1" stroke="none" stroke-width="1" fill="none" fill-rule="evenodd">
        <g id="kanjinoglow_vectorized" fill="#FFFFFF" fill-rule="nonzero">
            <path d="M7,251 C6,250 7,248 15,235 C40,198 53,162 55,125 C57,90 52,62 38,24 C35,17 33,10 33,8 L32,6 L33,5 L34,5 L38,9 C51,21 66,52 72,79 C73,85 74.3418826,92.4498392 74.3418826,92.4498392 C74.3418826,92.4498392 75,97 75,102 C75,108 76,113 76,114 L77,116 L81,106 C87,91 95,69 105,39 C115,7 118,0 120,0 L122,0 L122,2 C124,5 123,25 122,35 C118,55 114,71 108,91 C103,105 101,110 90,132 C79,154 76,164 73,177 C72,187 72,190 74,199 C76,212 84,224 95,231 C101,235 106,237 119,241 L124,243 L124,244 L124,245 L119,246 C109,250 97,248 85,241 C72,235 62,223 56,209 L54,202 C53,202 50,207 46,214 C38,226 18,246 11,250 L7,252 L7,251 Z M138,229 C136,228 133,226 131,225 C127,223 125,223 114,222 C107,222 102,221 101,220 L100,219 L103,216 C107,211 116,207 125,206 C131,206 133,206 137,208 C146,212 149,212 162,210 C168,209 177,208 180,208 L187,208 L187,210 C187,211 186,213 184,215 C179,219 167,226 159,228 C153,230 143,230 138,229 Z M211,223 C208,222 205,219 202,217 C199,213 198,211 198,209 L198,205 L199,204 C200,204 202,205 204,206 C208,210 211,210 216,210 C225,209 231,201 233,188 C235,174 236,158 236,149 C233,114 233,105 233,103 L234,100 L235,100 C238,100 246,115 249,127 C255,147 257,176 253,190 C249,204 240,216 230,221 C224,224 216,225 211,223 Z M115,198 C106,196 100,191 96,182 C94,178 94,176 94,167 C94,156 94,155 97,147 C104,130 116,117 131,107 C141,102 154,96 156,97 L158,98 L158,99 C158,99 157,101 155,103 C153,106 153,108 151,118 C147,155 147,172 151,185 L154,193 L152,194 C150,196 147,194 143,191 C141,189 139,188 138,188 C138,188 136,190 133,192 C131,195 128,197 125,198 C119,199 119,199 115,198 Z M129,181 C132,179 132,178 130,161 C129,152 130,137 132,131 L132,129 L131,129 C128,129 119,143 116,152 C114,155 113,161 112,165 C111,171 111,172 113,176 C114,180 115,182 117,183 C120,184 126,184 129,181 Z M176,194 C168,186 161,154 161,128 C161,112 162,103 165,99 L167,97 L170,98 C174,101 185,115 198,137 C201,142 204,147 205,147 L206,147 L206,138 C206,121 210,102 214,97 L216,95 L218,98 C223,106 226,133 226,164 C227,186 226,191 222,193 C217,196 201,179 189,160 L184,151 L183,152 C182,152 182,158 183,165 C183,182 183,189 180,193 L177,195 L176,194 Z M270,186 C266,180 264,170 265,151 C265,131 266,122 271,109 C275,98 278,96 281,103 C284,110 284,160 280,175 C278,180 275,188 273,188 C273,188 271,187 270,186 Z M8,184 C7,182 7,179 9,171 C13,153 14,140 13,127 C12,115 9,99 4,82 C2,71 8.8817842e-16,62 1,59 L2,56 L3,56 C5,56 10,62 14,69 C28,92 34,118 31,142 C29,161 21,179 12,184 L9,186 L8,184 Z M226,92 C221,88 222,81 229,72 L231,70 L236,74 C246,84 245,93 233,95 C230,95 229,95 226,92 Z M275,89 C269,86 267,77 272,72 C274,70 275,70 279,70 C283,70 284,71 286,74 C289,78 288,84 285,88 C281,91 279,91 275,89 Z M172,84 C170,83 166,81 163,79 C155,75 149,74 140,76 C136,77 133,78 133,77 C131,76 132,72 136,68 C143,59 156,57 170,63 C174,65 179,66 181,66 C183,66 190,64 197,62 C203,60 210,58 212,58 C216,58 219,59 219,61 C219,64 204,77 197,80 C189,84 179,86 172,84 Z" id="Shape"></path>
        </g>
    </g>
</svg>