<svg id="Warstwa_1" data-name="Warstwa 1" xmlns="http://www.w3.org/2000/svg" xmlns:xlink="http://www.w3.org/1999/xlink" viewBox="0 0 3841 2160"><defs><style>.cls-1{fill:#0b1629;}.cls-2{fill:url(#Gradient_bez_nazwy_110);}.cls-3{fill:#051838;}.cls-12,.cls-4{fill:#09668a;}.cls-5{fill:#09214a;}.cls-6{fill:#0b295d;}.cls-7{fill:#112444;}.cls-8{fill:#2058ab;}.cls-8,.cls-9{opacity:0.3;}.cls-9{fill:#104262;}.cls-10{fill:none;stroke:#098dbf;stroke-miterlimit:10;stroke-width:7px;}.cls-11{fill:#16528e;}.cls-12{opacity:0.5;}</style><linearGradient id="Gradient_bez_nazwy_110" x1="3421" y1="-420" x2="421" y2="2580" gradientUnits="userSpaceOnUse"><stop offset="0" stop-color="#0b1623"/><stop offset="1" stop-color="#091a2d"/></linearGradient></defs><title>Bez nazwy-1</title><path class="cls-1" d="M2385,1595.37c0,161.08-156.67,260.83-390,260.83-161.08,0-343.33-182.25-343.33-343.33s130-223.33,386.67-206.67C2199.08,1316.64,2385,1434.28,2385,1595.37Z"/><rect class="cls-2" x="1" width="3840" height="2160"/><path class="cls-3" d="M1455.45,1628.61c0,179.83-47.15,364.17-134.49,531.39H0V754.63c957.87-22.15,1352.38,265.71,1437.27,683.5q1.71,8.34,3.23,16.77C1450.67,1510.7,1455.45,1568.75,1455.45,1628.61Z"/><path class="cls-4" d="M2271.32,2120.41c-26.65-65.61-76.52-165.65-162.71-269.66-.8-1-1.61-1.94-2.42-2.9-96.43-115.55-217.57-212.49-360.13-288.18q-7.74-4.11-15.56-8.13-38.39-19.76-78.82-37.48a1606.14,1606.14,0,0,0-214.41-75.93c-102.18-28.51-211.55-49.12-327.46-61.69q-106.67-11.56-209.17-21.07c-151.82-14.09-296.26-24.76-431.58-31.86h0q-16.34-.86-32.5-1.65C277,1314.07,130.21,1311.32,0,1313.66v15c119-2.14,286.45-.45,507.5,12.08h0c119,6.75,253.59,16.64,404.48,30.77q93.86,8.79,196.2,19.85c123.21,13.36,233.56,35.37,332.31,63.54a1585.53,1585.53,0,0,1,212,76.62q39.5,17.64,75.68,36.5c166.57,86.6,282.1,190,360.57,282.36,2.63,3.11,5.23,6.19,7.78,9.27,85.07,102.48,134.31,201.05,160.63,265.69,5,12.33,9.42,23.92,13.26,34.66h15.94C2282.08,2147.92,2277.11,2134.67,2271.32,2120.41Z"/><path class="cls-5" d="M1023.54,1770.22c0,129.64-14.49,262.38-45.51,389.78H0V999.78c456.65,24.6,749.89,148.69,900.64,355.59q5.82,8,11.35,16.14C987.37,1482.47,1023.54,1616.18,1023.54,1770.22Z"/><path class="cls-6" d="M795.59,1743.23c0,127.78-8.09,271.35-29,416.77H0V1246c167.57-5.57,332.89,20.7,469,77.5h0q19.64,8.17,38.44,17.23h0C679.08,1423.22,795.59,1558.39,795.59,1743.23Z"/><path class="cls-7" d="M3840,0V1383.9c-138.69-313.41-430.56-445.75-859-478.9-301.41-23.32-522.14-59.17-695.2-128.44-59.8-23.93-113.9-51.86-163.68-84.63q-16.58-10.89-32.52-22.54c-86.7-63.26-160.21-143-228.6-244.39-97.78-144.93-110.2-298.24-93.14-425Z"/><path class="cls-4" d="M3840,1134.05v15.45c-137.8-101.3-279.67-173.57-432.72-227.82-280.05-99.29-597.53-138.26-996-184.45l-41.45-4.8-73.69-8.54a1317.83,1317.83,0,0,1-174-32,1171.75,1171.75,0,0,1-171.83-58.13,1099.38,1099.38,0,0,1-266.56-162.55C1548,359.2,1435.15,211.89,1348.26,33.42Q1340.1,16.67,1332.48,0h14.31q6.48,14,13.34,28.1C1476.38,266.71,1694,554.28,2089.6,669.39a1266.78,1266.78,0,0,0,208,41.59l73.68,8.54q39.5,4.58,77.87,9c215,25,404.4,48.3,579,81.22,119.86,22.6,226,48.69,322.8,79.59,75.85,24.22,146,51.39,212.5,82.16A1640.39,1640.39,0,0,1,3840,1134.05Z"/><path class="cls-8" d="M3840,0V1372.92c-106.09-206.72-260.45-347.49-432.72-451.24q-27.87-16.8-56.32-32.32C3205.52,809.84,3050.07,753.51,2901.77,704,2726,645.26,2560.31,596.1,2433.26,529.18,2215.83,414.65,2026.7,212.83,1868,0Z"/><path class="cls-9" d="M3840,1035.27V2160H1821.49c-70.26-95.18-107.89-242-111.51-302.78-5.65-94.89,1.52-109.7,5.66-168,2.83-39.74,6.88-80.31,12.51-121.24q1.13-8.23,2.35-16.48c10.95-74.21,27.21-149.4,50.87-222.8,74.13-230.05,220.88-442.52,504.43-552.18a1034.46,1034.46,0,0,1,125.45-39.33q18.63-4.61,37.91-8.68c127.92-27.1,277.58-36.89,452.61-24.58,108.58,7.64,226.93,23.78,355.9,49.57C3479.39,797.88,3679.45,897.72,3840,1035.27Z"/><circle class="cls-10" cx="147.49" cy="468.78" r="28.22"/><circle class="cls-11" cx="87.59" cy="368.73" r="14.63"/><circle class="cls-11" cx="1560.78" cy="242.96" r="14.63"/><path class="cls-11" d="M1811.48,436.38c-3.49-7.29-4.31-16.55,3.93-20.5s21.43-3.21,24.91,4.08-4,18.38-12.28,22.32S1815,443.67,1811.48,436.38Z"/><path class="cls-11" d="M1289.88,107.35c-7.33,3.4-16.61,4.1-20.45-4.19s0-18,7.32-21.42,17.16-2.79,21,5.5S1297.22,104,1289.88,107.35Z"/><path class="cls-12" d="M3821.28,1667.47c-11.71,1.12-23.49,2.34-35,3.63l2.46,21.87c11.4-1.28,23.07-2.49,34.66-3.6Zm-55,6c-11.67,1.43-23.42,3-34.92,4.57l3,21.79c11.38-1.59,23-3.11,34.54-4.52Zm-54.84,7.46c-11.6,1.75-23.31,3.62-34.78,5.57l3.67,21.69c11.35-1.92,22.91-3.77,34.38-5.5Zm-54.61,9.05c-11.58,2.09-23.19,4.32-34.52,6.6l4.36,21.57c11.18-2.26,22.65-4.46,34.08-6.53Zm-54.19,10.7c-11.52,2.47-23.08,5.07-34.34,7.75l5.08,21.4c11.11-2.63,22.5-5.2,33.88-7.64Zm-53.9,12.52c-11.43,2.86-22.9,5.88-34.1,9l5.85,21.21c11-3,22.34-6,33.6-8.84Zm-53.5,14.47c-11.36,3.3-22.72,6.77-33.79,10.29l6.68,21c10.89-3.48,22.08-6.88,33.25-10.13Zm-53,16.57c-11.21,3.77-22.44,7.71-33.37,11.71l7.57,20.66c10.74-3.94,21.78-7.81,32.8-11.51ZM3390,1763c-11.06,4.26-22.11,8.71-32.84,13.22l8.52,20.28c10.53-4.43,21.37-8.79,32.23-13Zm-51.44,21.23c-10.83,4.78-21.66,9.77-32.17,14.83l9.53,19.82c10.3-4.95,20.91-9.84,31.53-14.53Zm-50.34,23.78c-10.58,5.35-21.13,10.91-31.35,16.53l10.61,19.28c10-5.5,20.31-10.94,30.66-16.17Zm-49,26.49c-10.25,5.93-20.46,12.09-30.34,18.31l11.73,18.61c9.64-6.07,19.61-12.09,29.62-17.88Zm-47.35,29.3c-9.87,6.53-19.67,13.31-29.12,20.15l12.88,17.83c9.22-6.66,18.77-13.27,28.39-19.64ZM3146.46,1896c-9.4,7.14-18.72,14.55-27.7,22l14.07,16.92c8.73-7.26,17.8-14.46,26.94-21.42Zm-43.12,35.17c-8.9,7.79-17.69,15.86-26.14,24l15.24,15.87c8.2-7.88,16.75-15.72,25.39-23.29Zm-40.58,38.22c-8.3,8.41-16.48,17.1-24.31,25.84l16.38,14.69c7.6-8.48,15.54-16.92,23.59-25.08Zm-37.64,41.14c-7.63,9-15.12,18.29-22.28,27.63l17.46,13.38c6.94-9.05,14.21-18.07,21.6-26.79Zm-34.39,43.91c-6.9,9.55-13.65,19.41-20.06,29.28l18.45,12c6.21-9.57,12.76-19.12,19.44-28.38Zm-30.88,46.45c-6.12,10-12.08,20.39-17.72,30.75l19.32,10.51c5.47-10,11.25-20.07,17.19-29.8Zm-27.17,48.7q-2.61,5.14-5.18,10.38h24.58l.21-.41Z"/></svg>