<?xml version="1.0" encoding="UTF-8"?>
<svg width="1024px" height="1024px" viewBox="0 0 1024 1024" version="1.1" xmlns="http://www.w3.org/2000/svg" xmlns:xlink="http://www.w3.org/1999/xlink">
    <title>Untitled 13</title>
    <g id="Page-1" stroke="none" stroke-width="1" fill="none" fill-rule="evenodd">
        <g id="safari-pinned-tab" fill="#000000" fill-rule="nonzero">
            <path d="M884,1.07819584 C896.8,2.87819584 904.4,4.57819584 916.5,8.87819584 C973.6,28.6781958 1015.1,79.7781958 1022.8,139.878196 C1023.7,146.878196 1023.7,875.478196 1022.8,882.878196 C1017.2,928.878196 991.6,970.678196 953.2,996.778196 C936.5,1008.0782 910.7,1018.3782 891.5,1021.3782 C888.8,1021.8782 885.8,1022.4782 885,1022.7782 C883.3,1023.3782 148.1,1023.7782 143.5,1023.1782 C95.9,1016.7782 59.2,995.678196 31.6,958.878196 C24.3,949.078196 15.4,933.278196 10.6,921.378196 C8.6,916.278196 4.5,901.978196 3.1,894.878196 C2.5,891.878196 1.7,888.078196 1.3,886.378196 C0.2,881.878196 -0.1,149.678196 1.1,141.878196 C3,128.378196 3.7,124.678196 5.6,117.878196 C15.1,83.8781958 33.7,56.1781958 62.6,32.8781958 C68,28.4781958 81.6,20.2781958 90.5,15.9781958 C107,7.87819584 121.8,3.57819584 141,1.07819584 C148.3,0.178195836 876.9,0.178195836 884,1.07819584 Z M345.960109,133.878196 L345.960109,136.878196 C342.959768,139.878196 345.960109,145.878196 369.962837,184.878196 C444.97136,295.878196 483.975793,403.878196 489.976475,514.878196 C495.977156,619.878196 480.975452,703.878196 438.970678,817.878196 C429.969656,838.878196 423.968974,859.878196 423.968974,865.878196 L420.968633,871.878196 L423.968974,874.878196 L426.969315,874.878196 L438.970678,862.878196 C477.975111,826.878196 522.980225,733.878196 540.982271,652.878196 C543.982612,634.878196 548.008717,612.528678 548.008717,612.528678 C548.008717,612.528678 549.983294,598.878196 549.983294,583.878196 C549.983294,565.878196 552.983635,550.878196 552.983635,547.878196 L555.983975,541.878196 L567.985339,571.878196 C585.987385,616.878196 609.990113,682.878196 639.993522,772.878196 C669.996931,868.878196 678.997954,889.878196 684.998636,889.878196 L690.999318,889.878196 L690.999318,883.878196 C697,874.878196 693.999659,814.878196 690.999318,784.878196 C678.997954,724.878196 666.996591,676.878196 648.994545,616.878196 C633.99284,574.878196 627.992158,559.878196 594.988408,493.878196 C561.984657,427.878196 552.983635,397.878196 543.982612,358.878196 C540.982271,328.878196 540.982271,319.878196 546.982953,292.878196 C552.983635,253.878196 576.986362,217.878196 609.990113,196.878196 C627.992158,184.878196 642.993863,178.878196 681.998295,166.878196 L697,160.878196 L697,154.878196 L681.998295,151.878196 C651.994886,139.878196 615.990794,145.878196 579.986703,166.878196 C540.982271,184.878196 510.978861,220.878196 492.976816,262.878196 L486.976134,283.878196 C483.975793,283.878196 474.97477,268.878196 462.973406,247.878196 C438.970678,211.878196 378.96386,151.878196 357.961473,139.878196 L345.960109,133.878196 Z M351.781426,331.878196 L348.783426,337.878196 C345.785426,343.878196 345.785426,352.878196 351.781426,376.878196 C363.773426,430.878196 366.771426,469.878196 363.773426,508.878196 C360.775426,544.878196 351.781426,592.878196 336.791427,643.878196 C330.795427,676.878196 324.799427,703.878196 327.797427,712.878196 L330.795427,721.878196 L333.793427,721.878196 C339.789427,721.878196 354.779426,703.878196 366.771426,682.878196 C408.743424,613.878196 426.731424,535.878196 417.737424,463.878196 C411.741424,406.878196 387.757425,352.878196 360.775426,337.878196 L351.781426,331.878196 Z" id="Shape" transform="translate(511.901210, 511.939098) scale(-1, 1) rotate(-180.000000) translate(-511.901210, -511.939098) "></path>
        </g>
    </g>
</svg>